<svg width="135" height="32" viewBox="0 0 135 32" fill="none" xmlns="http://www.w3.org/2000/svg">
<path d="M27.1069 23.4578C26.3834 25.0631 26.0374 25.7791 25.1042 27.1981C23.8041 29.1785 21.9691 31.6467 19.6991 31.6676C17.6807 31.686 17.1616 30.3535 14.4224 30.3693C11.6831 30.385 11.1117 31.6912 9.09324 31.6729C6.82318 31.6519 5.08525 29.425 3.78508 27.4421C0.146694 21.9024 -0.230776 15.4001 2.01045 11.9457C3.60421 9.48801 6.11805 8.05063 8.48247 8.05063C10.8888 8.05063 12.404 9.37259 14.3935 9.37259C16.3254 9.37259 17.5024 8.05063 20.2836 8.05063C22.3886 8.05063 24.6167 9.19686 26.2052 11.1798C21.0019 14.0309 21.8486 21.4696 27.1069 23.4578Z" fill="#1B1C20"/>
<path d="M18.1714 5.83847C19.1832 4.54011 19.9513 2.70405 19.6708 0.831268C18.0194 0.944055 16.0875 1.99586 14.9577 3.36766C13.9327 4.61356 13.0887 6.45749 13.4163 8.25158C15.2224 8.30666 17.0888 7.22863 18.1714 5.83847Z" fill="#1B1C20"/>
<path d="M36.9291 9.02683C38.0588 9.02683 39.0849 8.51958 39.4076 7.59732V8.88849H40.3184V5.30318H37.1942V6.0871H39.4076C39.2808 7.33216 38.4047 8.18526 37.0443 8.18526C35.4765 8.18526 34.4159 7.06701 34.4159 5.26859C34.4159 3.47018 35.465 2.3404 36.9521 2.3404C38.4162 2.3404 39.2693 3.21655 39.35 4.54231L40.3069 4.48467C40.18 2.62861 38.9926 1.4873 36.9406 1.4873C34.9347 1.4873 33.3899 3.02057 33.3899 5.25707C33.3899 7.51662 34.877 9.02683 36.9291 9.02683Z" fill="#1B1C20"/>
<path d="M45.4425 7.1016C45.2349 7.874 44.7392 8.27749 43.8977 8.27749C42.9984 8.27749 42.2952 7.58579 42.2491 6.60588H46.261V6.22544C46.261 4.85357 45.4425 3.71227 43.84 3.71227C42.3874 3.71227 41.2923 4.85357 41.2923 6.44448C41.2923 8.01233 42.3874 9.02683 43.8861 9.02683C45.1427 9.02683 45.9843 8.33513 46.2379 7.19382L45.4425 7.1016ZM42.2722 5.98335C42.3874 5.15331 42.9293 4.43856 43.84 4.43856C44.7969 4.43856 45.2465 5.17637 45.2811 5.98335H42.2722Z" fill="#1B1C20"/>
<path d="M47.4283 7.7126C47.4283 8.69251 47.9355 9.02683 48.6503 9.02683C49.2037 9.02683 49.5726 8.87696 49.9415 8.60028V7.95469C49.6533 8.11609 49.3189 8.25443 48.9961 8.25443C48.5581 8.25443 48.3736 8.04692 48.3736 7.59732V4.54231H49.7916V3.85061H48.3736V2.45568H47.8318L47.6819 3.15891C47.5666 3.6431 47.4629 3.87367 46.9902 3.96589L46.6674 4.02354V4.54231H47.4283V7.7126Z" fill="#1B1C20"/>
<path d="M52.8507 3.85061V8.88849H53.8075V3.85061H52.8507ZM52.8276 2.70931H53.819V1.62564H52.8276V2.70931Z" fill="#1B1C20"/>
<path d="M55.2865 7.7126C55.2865 8.69251 55.7937 9.02683 56.5085 9.02683C57.0618 9.02683 57.4307 8.87696 57.7996 8.60028V7.95469C57.5114 8.11609 57.1771 8.25443 56.8543 8.25443C56.4162 8.25443 56.2318 8.04692 56.2318 7.59732V4.54231H57.6498V3.85061H56.2318V2.45568H55.69L55.5401 3.15891C55.4248 3.6431 55.3211 3.87367 54.8484 3.96589L54.5256 4.02354V4.54231H55.2865V7.7126Z" fill="#1B1C20"/>
<path d="M61.3659 6.37531C61.3659 5.24554 61.9308 4.46161 62.9453 4.46161C63.9713 4.46161 64.5478 5.24554 64.5478 6.37531C64.5478 7.49356 63.9713 8.28901 62.9453 8.28901C61.9308 8.28901 61.3659 7.49356 61.3659 6.37531ZM65.5277 6.37531C65.5277 4.80746 64.4325 3.71227 62.9453 3.71227C61.4697 3.71227 60.386 4.80746 60.386 6.37531C60.386 7.94317 61.4697 9.02683 62.9453 9.02683C64.4325 9.02683 65.5277 7.94317 65.5277 6.37531Z" fill="#1B1C20"/>
<path d="M67.4749 5.99488C67.4749 5.07261 68.0743 4.47314 68.8352 4.47314C69.6307 4.47314 70.0342 5.00344 70.0342 5.84501V8.88849H70.991V5.76431C70.991 4.58842 70.4607 3.71227 69.1465 3.71227C68.3971 3.71227 67.717 4.13882 67.4749 4.74982V3.85061H66.518V8.88849H67.4749V5.99488Z" fill="#1B1C20"/>
<path d="M39.2977 12.4496L33.3899 27.2192H36.9533L38.1958 24.0309H44.1506L45.4165 27.2192H49.2144L43.2597 12.4496H39.2977ZM41.1263 16.5054H41.2201L43.119 21.3583H39.2274L41.1263 16.5054Z" fill="#1B1C20"/>
<path d="M53.7317 21.8975C53.7317 20.233 54.6929 19.178 56.0996 19.178C57.6937 19.178 58.4674 20.3267 58.4674 22.0147C58.4674 23.7261 57.6937 24.8748 56.0996 24.8748C54.6929 24.8748 53.7317 23.8199 53.7317 22.1319V21.8975ZM53.7317 25.3672C54.2475 26.5862 55.4431 27.5005 57.2483 27.5005C60.296 27.5005 61.8902 25.0858 61.8902 22.0147C61.8902 18.967 60.296 16.5288 57.2483 16.5288C55.4431 16.5288 54.2475 17.4432 53.7317 18.6857V16.8102H50.3558V31.0171H53.7317V25.3672Z" fill="#1B1C20"/>
<path d="M66.8731 21.8975C66.8731 20.233 67.8343 19.178 69.2409 19.178C70.8351 19.178 71.6087 20.3267 71.6087 22.0147C71.6087 23.7261 70.8351 24.8748 69.2409 24.8748C67.8343 24.8748 66.8731 23.8199 66.8731 22.1319V21.8975ZM66.8731 25.3672C67.3889 26.5862 68.5845 27.5005 70.3897 27.5005C73.4373 27.5005 75.0315 25.0858 75.0315 22.0147C75.0315 18.967 73.4373 16.5288 70.3897 16.5288C68.5845 16.5288 67.3889 17.4432 66.8731 18.6857V16.8102H63.4972V31.0171H66.8731V25.3672Z" fill="#1B1C20"/>
<path d="M80.2181 21.9678C80.2181 25.5547 83.0314 27.5005 86.9699 27.5005C90.3458 27.5005 92.995 25.9298 92.995 22.8821C92.995 20.4674 91.6118 18.967 88.5875 18.4278L85.8212 17.9355C84.7427 17.7245 84.0863 17.4197 84.0863 16.5757C84.0863 15.5677 84.9303 14.9581 86.4307 14.9581C88.1421 14.9581 89.3377 15.8021 89.4315 17.5369L92.7136 17.4432C92.6433 14.161 90.463 12.1683 86.4541 12.1683C82.8672 12.1683 80.5932 13.9735 80.5932 16.8805C80.5932 19.389 82.2577 20.7018 84.6021 21.1473L87.3685 21.6396C88.6579 21.8975 89.5253 22.1319 89.5253 23.1166C89.5253 24.1012 88.5406 24.7107 86.9699 24.7107C85.1413 24.7107 83.6174 23.8902 83.4768 21.8506L80.2181 21.9678Z" fill="#1B1C20"/>
<path d="M95.1917 24.4294C95.1917 26.7738 96.7156 27.5005 98.4035 27.5005C99.7633 27.5005 100.654 27.1723 101.428 26.5862V24.3591C100.795 24.6404 100.256 24.7811 99.7398 24.7811C98.9427 24.7811 98.5207 24.406 98.5207 23.5151V19.178H101.287V16.8102H98.5207V13.9266H96.4342L96.0826 15.3098C95.8247 16.271 95.5199 16.8102 94.4884 16.9977L93.7382 17.1149V19.178H95.1917V24.4294Z" fill="#1B1C20"/>
<path d="M105.758 22.0147C105.758 20.2799 106.438 19.0842 107.938 19.0842C109.415 19.0842 110.142 20.2799 110.142 22.0147C110.142 23.7495 109.415 24.9452 107.938 24.9452C106.438 24.9452 105.758 23.7495 105.758 22.0147ZM113.565 22.0147C113.565 18.8029 111.267 16.5288 107.938 16.5288C104.609 16.5288 102.335 18.8029 102.335 22.0147C102.335 25.2499 104.609 27.5005 107.938 27.5005C111.267 27.5005 113.565 25.2499 113.565 22.0147Z" fill="#1B1C20"/>
<path d="M122.906 16.9508C122.624 16.7164 122.085 16.5288 121.452 16.5288C120.045 16.5288 118.967 17.5369 118.568 18.7091V16.8102H115.193V27.2192H118.568V22.296C118.568 20.4908 119.506 19.6938 120.913 19.6938C121.64 19.6938 122.155 19.811 122.695 20.1157L122.906 16.9508Z" fill="#1B1C20"/>
<path d="M131.393 23.5385C131.018 24.4997 130.291 24.9452 129.119 24.9452C127.806 24.9452 126.775 24.1481 126.681 22.7649H134.183V21.7334C134.183 18.8967 132.378 16.5288 128.932 16.5288C125.743 16.5288 123.352 18.8967 123.352 22.1788C123.352 25.4844 125.696 27.5005 129.002 27.5005C131.722 27.5005 133.574 26.1642 134.113 23.7964L131.393 23.5385ZM126.728 20.9597C126.916 19.8579 127.549 18.9904 128.908 18.9904C130.198 18.9904 130.854 19.9282 130.924 20.9597H126.728Z" fill="#1B1C20"/>
</svg>
