<svg width="135" height="30" viewBox="0 0 135 30" fill="none" xmlns="http://www.w3.org/2000/svg">
<path fill-rule="evenodd" clip-rule="evenodd" d="M4.19007 0.939619C3.02132 1.46598 1.3907 3.15476 0.9607 4.28378C0.756529 4.82025 0.632477 8.53483 0.632477 14.1101C0.632477 24.3448 0.757458 25.0675 2.90532 27.2517C5.39347 29.7821 5.32757 29.7702 16.7189 29.7702C26.7396 29.7702 26.7765 29.7677 27.779 29.0593C28.3325 28.6684 29.1678 27.8519 29.6352 27.245L30.4853 26.1414V16.3132C30.4853 5.30924 30.4748 5.24919 28.1652 2.96174C25.8747 0.693288 25.7562 0.672148 14.8628 0.592795C7.17164 0.536727 4.92262 0.609953 4.19007 0.939619ZM9.00581 3.65601C10.217 4.46424 11.011 6.23267 10.7051 7.43982C10.5897 7.8951 10.0304 8.72816 9.4618 9.29128C8.60087 10.1439 8.20334 10.3131 7.08255 10.3042C5.46369 10.291 4.50994 9.81184 3.70933 8.60928C2.91398 7.41439 2.9511 6.03935 3.81266 4.77307C5.10483 2.87411 7.16917 2.43016 9.00581 3.65601ZM15.1722 3.23075C15.1722 3.37842 14.9782 3.65876 14.7416 3.85362C14.5046 4.04817 14.1353 4.62723 13.9209 5.1398L13.5308 6.07213L13.1558 5.0531C12.9498 4.49273 12.6775 3.79295 12.5514 3.49791C12.3518 3.0319 12.5084 2.96174 13.747 2.96174C14.531 2.96174 15.1722 3.08276 15.1722 3.23075ZM24.301 3.53314C28.7891 5.5525 29.3924 11.3548 25.4041 14.1446C24.236 14.9618 23.8412 15.0638 21.8475 15.0638C19.8834 15.0638 19.4463 14.9547 18.327 14.1867C16.9519 13.243 15.4803 10.7721 15.4835 9.41231C15.4933 4.90359 20.2692 1.71906 24.301 3.53314ZM79.5182 16.9021V26.2467H80.8961H82.2743L82.3656 24.2032C82.416 23.0791 82.5963 22.1222 82.7665 22.0772C82.9366 22.0319 83.9111 22.94 84.932 24.0957L86.7881 26.1965L88.7216 26.2216C89.7851 26.2355 90.6501 26.1432 90.6439 26.0169C90.6377 25.8908 89.3938 24.4774 87.8792 22.8765L85.1253 19.9659L87.8065 17.2851L90.4874 14.6042H88.4908H86.4942L84.3984 16.664L82.3024 18.7239V13.1407V7.55747H80.9103H79.5182V16.9021ZM103.648 16.9021V26.2467H105.04C106.051 26.2467 106.433 26.1249 106.433 25.8022C106.433 25.4367 106.666 25.4627 107.747 25.9486C113.63 28.5934 118.816 21.7559 115.021 16.3589C113.628 14.3782 109.593 13.6058 107.437 14.9073L106.433 15.5145V11.5358V7.55747H105.04H103.648V16.9021ZM117.878 16.8852V26.2467H119.43H120.981L120.899 16.9787L120.817 7.71066L119.348 7.61721L117.878 7.52377V16.8852ZM39.6113 17.6681V26.2467L43.401 26.2449C47.7959 26.2431 49.1227 25.9527 50.5975 24.6701C52.7382 22.8088 52.6955 19.7478 50.5013 17.7572C49.89 17.2027 49.5583 16.749 49.7641 16.749C50.4301 16.749 51.3644 14.8185 51.3656 13.44C51.3672 11.655 50.6664 10.4424 49.2073 9.70525C48.1641 9.17823 47.3848 9.08938 43.8 9.08938H39.6113V17.6681ZM13.7585 12.815C14.1919 13.6753 14.1869 13.728 13.6938 13.5301C12.827 13.1817 11.6753 12.83 10.7178 12.6207L9.82099 12.4249L10.8771 11.7142C11.4578 11.3232 12.1387 10.6231 12.3901 10.1581L12.8471 9.31243L13.0689 10.5992C13.1908 11.307 13.5011 12.3042 13.7585 12.815ZM47.6917 12.4289C49.1849 14.2552 47.7879 15.8298 44.6739 15.8298H42.7049V13.6505V11.4712L44.9075 11.5947C46.7531 11.6979 47.2048 11.8334 47.6917 12.4289ZM5.11814 12.7874C5.99362 13.0968 6.01094 13.1343 5.4275 13.4471C5.0872 13.6294 4.4258 14.0426 3.95805 14.3656L3.10732 14.9523V13.3971C3.10732 12.0021 3.16332 11.8735 3.6487 12.1504C3.94661 12.3204 4.6077 12.607 5.11814 12.7874ZM55.3112 15.1226C54.5028 15.5685 53.8417 16.0216 53.8417 16.1303C53.8417 16.2391 54.2569 16.7219 54.7645 17.2033C55.6403 18.0345 55.7167 18.0525 56.2686 17.5578C57.158 16.7609 58.6658 16.4312 59.7346 16.8C60.5074 17.067 61.2663 17.8445 61.2663 18.37C61.2663 18.4411 60.2831 18.5897 59.0812 18.7003C56.4365 18.9438 55.093 19.4622 54.203 20.583C53.377 21.6228 53.2901 23.9296 54.0369 24.9854C55.1265 26.5262 58.0746 27.0053 60.1182 25.9735C61.0249 25.5154 61.2663 25.4832 61.2663 25.8203C61.2663 26.1214 61.6752 26.2467 62.6583 26.2467H64.0504L64.0498 21.8808C64.0495 16.8574 63.7046 15.7348 61.885 14.8347C60.1696 13.986 57.132 14.1192 55.3112 15.1226ZM70.1602 14.7412C69.6924 14.9829 69.3095 15.0509 69.3095 14.8926C69.3095 14.7338 68.6134 14.6042 67.7627 14.6042H66.216V20.4255V26.2467H67.7627H69.3095V22.4853C69.3095 19.5321 69.416 18.5732 69.8048 18.0232C70.4297 17.1399 71.5969 16.6907 72.6125 16.9432C73.8536 17.2517 74.2592 18.6731 74.2592 22.7136V26.2467H75.6513H77.0434V21.9476C77.0434 17.0391 76.7291 15.8849 75.1285 14.9186C73.9053 14.1799 71.4184 14.0911 70.1602 14.7412ZM93.2846 14.7372C92.7741 14.9654 92.078 15.3635 91.7377 15.6215C91.1275 16.0841 91.1315 16.1037 92.0265 17.0311C92.8966 17.9334 92.9644 17.9515 93.6898 17.4808C95.5609 16.2666 97.6841 16.4107 98.3202 17.795C98.6411 18.4907 98.6067 18.5075 96.4874 18.7028C93.8848 18.9423 92.5232 19.4647 91.6565 20.556C90.6699 21.7981 90.5153 23.0028 91.1717 24.3331C92.1975 26.4128 95.1676 27.1763 97.5504 25.9735C98.4567 25.5154 98.6984 25.4832 98.6984 25.8203C98.6984 26.1206 99.1043 26.2467 100.067 26.2467H101.436L101.263 21.5745C101.069 16.3574 100.827 15.5605 99.2065 14.7988C97.9037 14.1867 94.5922 14.152 93.2846 14.7372ZM125.861 14.9066C123.427 16.2146 122.226 19.0404 122.859 21.9647C123.704 25.8684 128.129 27.6935 132.054 25.7572C134.002 24.7954 134.588 23.9517 133.757 23.3058C132.415 22.2622 132.174 22.2332 131.329 23.0092C130.88 23.421 130.106 23.8462 129.609 23.9544C128.447 24.2072 126.526 23.3043 126.012 22.2638L125.633 21.4979L130.108 21.413L134.584 21.3285L134.577 19.881C134.568 17.9995 133.682 16.1083 132.378 15.1888C130.926 14.1643 127.516 14.0166 125.861 14.9066ZM12.7883 16.1359C15.9883 18.3074 16.6128 22.4559 14.1563 25.2265C11.5567 28.1589 7.34179 28.1592 4.74289 25.2278C2.07222 22.2151 2.95048 17.6736 6.55417 15.8613C8.38308 14.9416 11.2119 15.066 12.7883 16.1359ZM28.1083 17.7679L28.0105 18.4806L26.67 17.8985L25.3293 17.3164L26.67 16.4732L28.0105 15.6304L28.1083 16.3427C28.162 16.7345 28.162 17.3761 28.1083 17.7679ZM130.831 17.1837C130.99 17.2811 131.266 17.7744 131.443 18.2802L131.767 19.2H128.661H125.555L126.141 18.2042C127.026 16.6975 129.247 16.214 130.831 17.1837ZM18.8845 17.3678C19.3099 17.5051 20.0653 17.7064 20.5633 17.8155L21.4691 18.0134L20.5633 18.5973C20.0653 18.9184 19.3445 19.6298 18.9618 20.1777L18.2658 21.1743L18.2589 20.2637C18.2553 19.7628 17.9768 18.7527 17.6406 18.0182C17.0794 16.7934 17.0735 16.7015 17.57 16.9009C17.8676 17.0204 18.4591 17.2302 18.8845 17.3678ZM111.217 17.1843C112.452 17.6956 113.238 19.0214 113.238 20.594C113.238 21.4574 112.999 21.9497 112.186 22.754C110.265 24.6566 107.443 23.9238 106.74 21.3394C106.237 19.4892 107.357 17.3804 109.062 16.9692C110.07 16.7259 110.12 16.7308 111.217 17.1843ZM48.0768 19.2223C48.7058 19.712 48.892 20.1274 48.892 21.0383C48.892 22.8532 47.8776 23.4893 44.9833 23.4893H42.7049V21.0383V18.5872H44.9833C46.82 18.5872 47.4197 18.7104 48.0768 19.2223ZM26.3338 20.6418C27.2888 21.2007 28.1652 22.7025 28.1652 23.7807C28.1652 25.5439 26.1463 27.4702 24.2982 27.4702C23.007 27.4702 21.4456 26.4468 20.8504 25.2106C20.1352 23.7252 20.4913 22.2378 21.8438 21.0615C23.1127 19.958 24.882 19.7925 26.3338 20.6418ZM61.1335 21.8808C60.8496 23.0782 59.5753 24.1021 58.3691 24.1021C56.9346 24.1021 56.1761 23.4731 56.4252 22.4905C56.6646 21.5451 57.7353 21.0962 59.8302 21.0625C61.316 21.0386 61.3309 21.0478 61.1335 21.8808ZM98.5188 21.8808C98.4137 22.3444 97.9859 23.0337 97.5676 23.4127C96.24 24.6168 93.7486 24.1665 93.7486 22.7225C93.7486 21.7098 95.0318 21.0658 97.0805 21.0505C98.7003 21.0383 98.7089 21.0432 98.5188 21.8808ZM18.5992 26.691C19.1598 27.2633 18.8638 27.4723 17.4924 27.4723C16.0638 27.4723 15.7736 27.2029 16.5309 26.5804C16.7678 26.3859 17.1441 25.7909 17.3668 25.2584L17.7714 24.2902L18.0431 25.345C18.1922 25.9253 18.4424 26.5308 18.5992 26.691Z" fill="#6B7280"/>
</svg>
