<svg width="150" height="32" viewBox="0 0 150 32" fill="none" xmlns="http://www.w3.org/2000/svg">
<path d="M0.880737 0.945984V16.2526V31.5593L16.3075 16.2526L0.880737 0.945984Z" fill="url(#paint0_linear_10632_37766)"/>
<path d="M20.4524 12.1417L14.2228 8.54534L0.880737 0.833923V0.947405L16.3075 16.254L20.4524 12.1417Z" fill="url(#paint1_linear_10632_37766)"/>
<path d="M0.880737 31.5598V31.6705L14.2228 23.9618L20.4497 20.3628L16.3075 16.2531L0.880737 31.5598Z" fill="url(#paint2_linear_10632_37766)"/>
<path d="M20.4493 12.14L16.3044 16.2524L20.4466 20.3621L27.5645 16.2524L20.4493 12.14Z" fill="url(#paint3_linear_10632_37766)"/>
<path d="M37.3867 9.02686C38.5164 9.02686 39.5425 8.51961 39.8653 7.59735V8.88852H40.776V5.30321H37.6518V6.08714H39.8653C39.7384 7.33219 38.8623 8.18529 37.502 8.18529C35.9341 8.18529 34.8735 7.06704 34.8735 5.26862C34.8735 3.47021 35.9226 2.34043 37.4097 2.34043C38.8738 2.34043 39.7269 3.21658 39.8076 4.54234L40.7645 4.4847C40.6377 2.62864 39.4502 1.48734 37.3982 1.48734C35.3923 1.48734 33.8475 3.0206 33.8475 5.2571C33.8475 7.51665 35.3346 9.02686 37.3867 9.02686Z" fill="#1B1C20"/>
<path d="M45.9001 7.10163C45.6926 7.87403 45.1968 8.27752 44.3553 8.27752C43.4561 8.27752 42.7528 7.58582 42.7067 6.60591H46.7186V6.22548C46.7186 4.85361 45.9001 3.7123 44.2976 3.7123C42.8451 3.7123 41.7499 4.85361 41.7499 6.44451C41.7499 8.01237 42.8451 9.02686 44.3437 9.02686C45.6003 9.02686 46.4419 8.33516 46.6955 7.19385L45.9001 7.10163ZM42.7298 5.98338C42.8451 5.15334 43.3869 4.43859 44.2976 4.43859C45.2545 4.43859 45.7041 5.1764 45.7387 5.98338H42.7298Z" fill="#1B1C20"/>
<path d="M47.8859 7.71263C47.8859 8.69254 48.3932 9.02686 49.1079 9.02686C49.6613 9.02686 50.0302 8.87699 50.3991 8.60031V7.95472C50.1109 8.11612 49.7766 8.25446 49.4538 8.25446C49.0157 8.25446 48.8312 8.04695 48.8312 7.59735V4.54234H50.2492V3.85064H48.8312V2.45571H48.2894L48.1395 3.15894C48.0242 3.64313 47.9205 3.8737 47.4478 3.96592L47.125 4.02357V4.54234H47.8859V7.71263Z" fill="#1B1C20"/>
<path d="M53.3083 3.85064V8.88852H54.2651V3.85064H53.3083ZM53.2852 2.70934H54.2766V1.62567H53.2852V2.70934Z" fill="#1B1C20"/>
<path d="M55.7441 7.71263C55.7441 8.69254 56.2513 9.02686 56.9661 9.02686C57.5194 9.02686 57.8883 8.87699 58.2573 8.60031V7.95472C57.969 8.11612 57.6347 8.25446 57.3119 8.25446C56.8739 8.25446 56.6894 8.04695 56.6894 7.59735V4.54234H58.1074V3.85064H56.6894V2.45571H56.1476L55.9977 3.15894C55.8824 3.64313 55.7787 3.8737 55.306 3.96592L54.9832 4.02357V4.54234H55.7441V7.71263Z" fill="#1B1C20"/>
<path d="M61.8236 6.37534C61.8236 5.24557 62.3884 4.46164 63.4029 4.46164C64.429 4.46164 65.0054 5.24557 65.0054 6.37534C65.0054 7.49359 64.429 8.28904 63.4029 8.28904C62.3884 8.28904 61.8236 7.49359 61.8236 6.37534ZM65.9853 6.37534C65.9853 4.80749 64.8901 3.7123 63.4029 3.7123C61.9273 3.7123 60.8436 4.80749 60.8436 6.37534C60.8436 7.9432 61.9273 9.02686 63.4029 9.02686C64.8901 9.02686 65.9853 7.9432 65.9853 6.37534Z" fill="#1B1C20"/>
<path d="M67.9325 5.99491C67.9325 5.07264 68.532 4.47317 69.2928 4.47317C70.0883 4.47317 70.4918 5.00347 70.4918 5.84504V8.88852H71.4486V5.76434C71.4486 4.58845 70.9183 3.7123 69.6041 3.7123C68.8548 3.7123 68.1746 4.13885 67.9325 4.74985V3.85064H66.9756V8.88852H67.9325V5.99491Z" fill="#1B1C20"/>
<path d="M40.9158 27.2751C42.8561 27.2751 44.5192 26.6283 45.3046 25.1731V26.9979H48.3768V19.5369H41.5856V22.0778H45.0736C44.5654 23.51 43.2026 24.3184 41.6087 24.3184C38.9524 24.3184 37.4509 22.4936 37.4509 19.7217C37.4509 17.0191 38.9062 15.2636 41.3316 15.2636C43.4336 15.2636 44.6809 16.4417 44.8657 18.2665L48.2844 18.151C47.961 14.4782 45.4894 12.1683 41.2623 12.1683C37.1044 12.1683 33.8475 15.2405 33.8475 19.7217C33.8475 24.226 36.8734 27.2751 40.9158 27.2751Z" fill="#1B1C20"/>
<path d="M53.303 21.8699C53.303 20.1606 53.9729 18.9825 55.4512 18.9825C56.9064 18.9825 57.6225 20.1606 57.6225 21.8699C57.6225 23.5793 56.9064 24.7573 55.4512 24.7573C53.9729 24.7573 53.303 23.5793 53.303 21.8699ZM60.995 21.8699C60.995 18.7054 58.7313 16.4648 55.4512 16.4648C52.1711 16.4648 49.9305 18.7054 49.9305 21.8699C49.9305 25.0576 52.1711 27.2751 55.4512 27.2751C58.7313 27.2751 60.995 25.0576 60.995 21.8699Z" fill="#1B1C20"/>
<path d="M65.4616 21.8699C65.4616 20.1606 66.1314 18.9825 67.6098 18.9825C69.065 18.9825 69.7811 20.1606 69.7811 21.8699C69.7811 23.5793 69.065 24.7573 67.6098 24.7573C66.1314 24.7573 65.4616 23.5793 65.4616 21.8699ZM73.1535 21.8699C73.1535 18.7054 70.8898 16.4648 67.6098 16.4648C64.3297 16.4648 62.0891 18.7054 62.0891 21.8699C62.0891 25.0576 64.3297 27.2751 67.6098 27.2751C70.8898 27.2751 73.1535 25.0576 73.1535 21.8699Z" fill="#1B1C20"/>
<path d="M84.1819 19.9758C84.1819 19.4445 84.0433 18.9825 83.8123 18.5668C84.3205 18.4282 84.921 18.3589 85.4061 18.3589V15.7949C84.2974 15.7949 83.2117 16.4879 82.6111 17.3194C81.7565 16.765 80.5784 16.4648 79.3311 16.4648C76.513 16.4648 74.5034 17.8045 74.5034 19.9758C74.5034 21.0846 75.0347 21.9854 75.9586 22.586C74.8961 22.9787 74.2493 23.7409 74.2493 24.688C74.2493 25.5658 74.7806 26.3511 75.7045 26.6514C74.5265 26.7669 73.718 27.5061 73.718 28.4531C73.718 30.3704 76.1896 31.0171 79.077 31.0171C82.357 31.0171 85.4061 29.8853 85.4061 27.3213C85.4061 25.6351 84.2281 24.4108 81.9413 24.4108H77.7372C77.0674 24.4108 76.7902 24.1105 76.7902 23.7178C76.7902 23.4638 76.9057 23.279 77.0674 23.1404C77.7372 23.3483 78.4995 23.4638 79.3311 23.4638C82.1492 23.4638 84.1819 22.124 84.1819 19.9758ZM76.5592 28.0605C76.5592 27.5292 76.975 27.2751 77.5063 27.2751H81.1328C81.8951 27.2751 82.3109 27.4599 82.3109 28.0143C82.3109 28.7765 80.948 29.1692 79.1001 29.1692C77.5986 29.1692 76.5592 28.8689 76.5592 28.0605ZM80.7401 19.9758C80.7401 21.0153 80.1626 21.6158 79.3542 21.6158C78.5688 21.6158 77.9913 21.0153 77.9913 19.9758C77.9913 18.9594 78.5688 18.382 79.3542 18.382C80.1626 18.382 80.7401 18.9594 80.7401 19.9758Z" fill="#1B1C20"/>
<path d="M86.51 12.4455V26.9979H89.8363V12.4455H86.51Z" fill="#1B1C20"/>
<path d="M99.3596 23.3714C98.99 24.3184 98.2739 24.7573 97.1189 24.7573C95.8254 24.7573 94.809 23.9719 94.7167 22.6091H102.108V21.5927C102.108 18.7978 100.33 16.4648 96.9342 16.4648C93.7927 16.4648 91.4366 18.7978 91.4366 22.0316C91.4366 25.2886 93.7465 27.2751 97.0035 27.2751C99.6829 27.2751 101.508 25.9585 102.039 23.6255L99.3596 23.3714ZM94.7629 20.8305C94.9476 19.7448 95.5713 18.8902 96.9111 18.8902C98.1815 18.8902 98.8283 19.8141 98.8976 20.8305H94.7629Z" fill="#1B1C20"/>
<path d="M111.475 19.4445V15.2636H113.993C115.91 15.2636 116.695 16.0028 116.695 17.3656C116.695 18.7285 115.91 19.4445 113.993 19.4445H111.475ZM111.475 22.2626H114.131C117.897 22.2626 120.091 20.484 120.091 17.3425C120.091 14.201 117.897 12.4455 114.131 12.4455H107.987V26.9979H111.475V22.2626Z" fill="#1B1C20"/>
<path d="M121.407 12.4455V26.9979H124.733V12.4455H121.407Z" fill="#1B1C20"/>
<path d="M132.94 22.6553C132.94 24.1105 131.969 25.0345 130.745 25.0345C130.029 25.0345 129.567 24.6649 129.567 24.0643C129.567 23.2559 130.214 23.0018 131.253 22.7939L132.94 22.4474V22.6553ZM136.22 20.4609C136.22 17.6659 134.302 16.4648 131.623 16.4648C128.689 16.4648 127.049 17.9893 126.703 20.1837L129.798 20.4147C129.983 19.56 130.468 18.9594 131.438 18.9594C132.455 18.9594 132.94 19.5369 132.94 20.5071V20.6919L130.075 21.2001C127.812 21.6389 126.333 22.4705 126.333 24.4339C126.333 26.1894 127.627 27.2289 129.683 27.2289C131.276 27.2289 132.547 26.6052 133.124 25.4272C133.425 26.5821 134.326 27.2289 135.55 27.2289C136.566 27.2289 137.213 26.9286 137.721 26.559V24.7804C137.421 24.919 137.167 24.9652 136.866 24.9652C136.451 24.9652 136.22 24.7342 136.22 24.2029V20.4609Z" fill="#1B1C20"/>
<path d="M143.244 30.74L149.135 16.7419H145.855L143.337 23.1404H143.244L140.773 16.7419H137.262L141.466 27.0903L139.964 30.74H143.244Z" fill="#1B1C20"/>
<defs>
<linearGradient id="paint0_linear_10632_37766" x1="8.59351" y1="0.944687" x2="8.59351" y2="31.5587" gradientUnits="userSpaceOnUse">
<stop stop-color="#257CB0"/>
<stop offset="0.2863" stop-color="#4A93B5"/>
<stop offset="0.767" stop-color="#78BCBB"/>
<stop offset="1" stop-color="#89CFBD"/>
</linearGradient>
<linearGradient id="paint1_linear_10632_37766" x1="0.87963" y1="8.54407" x2="20.4512" y2="8.54407" gradientUnits="userSpaceOnUse">
<stop stop-color="#52C1AD"/>
<stop offset="1" stop-color="#DEE89A"/>
</linearGradient>
<linearGradient id="paint2_linear_10632_37766" x1="10.6652" y1="16.2524" x2="10.6652" y2="31.6705" gradientUnits="userSpaceOnUse">
<stop stop-color="#EC413D"/>
<stop offset="0.1668" stop-color="#DA4452"/>
<stop offset="0.5748" stop-color="#B0487A"/>
<stop offset="0.8619" stop-color="#954A92"/>
<stop offset="1" stop-color="#8A4A9D"/>
</linearGradient>
<linearGradient id="paint3_linear_10632_37766" x1="21.9346" y1="12.1402" x2="21.9346" y2="20.3627" gradientUnits="userSpaceOnUse">
<stop stop-color="#F58879"/>
<stop offset="0.1194" stop-color="#F69079"/>
<stop offset="0.7128" stop-color="#FCB877"/>
<stop offset="1" stop-color="#FEC874"/>
</linearGradient>
</defs>
</svg>
