<svg width="89" height="18" viewBox="0 0 89 18" fill="none" xmlns="http://www.w3.org/2000/svg">
<path fill-rule="evenodd" clip-rule="evenodd" d="M78.9867 0.206971C78.1597 0.339505 76.8892 0.798465 76.1178 1.24363C74.6727 2.0774 73.2076 3.81954 72.6262 5.39539C71.6614 8.00961 71.9904 11.4768 73.3988 13.5393C74.71 15.4593 76.4322 16.5432 78.8975 16.9999C80.4393 17.2856 82.0062 17.0903 83.3918 16.4399C83.9053 16.1989 85.2116 15.3954 85.7514 14.9886C86.0233 14.7835 86.3833 15.0336 86.9634 15.8305C87.7527 16.915 88.048 17.0601 88.5205 16.5953L88.7721 16.3479L88.7706 8.86009C88.7699 4.74192 88.7429 1.27598 88.7108 1.15816C88.6342 0.877282 88.2385 0.675407 87.9188 0.754328C87.7764 0.789499 87.4012 1.12803 87.0656 1.5242C86.4253 2.27998 86.1059 2.44829 85.7461 2.21941C85.6237 2.1416 85.1682 1.84178 84.7336 1.55313C83.8919 0.994088 83.1972 0.64487 82.3681 0.363791C81.7849 0.166153 79.8128 0.0746421 78.9867 0.206971ZM31.1884 0.880506C30.3606 1.05849 29.417 1.48762 28.5637 2.07428C28.2035 2.32201 27.9078 2.49223 27.9068 2.45252C27.9058 2.41271 27.6142 2.07418 27.259 1.69998C26.5528 0.956297 26.2383 0.848654 25.8594 1.22125C25.6581 1.41929 25.6545 1.55716 25.6545 9.12697V16.8312L25.8823 16.9881C26.0647 17.1139 26.4276 17.145 27.7087 17.145C29.2372 17.145 29.3171 17.135 29.5255 16.9167C29.7405 16.6917 29.7438 16.6239 29.7738 11.9532L29.8043 7.21786L30.0753 6.71394C30.6961 5.56057 31.5953 5.00062 32.8269 5.00062C34.0791 5.00062 35.0043 5.56108 35.6184 6.69156C35.8468 7.11193 35.8502 7.17553 35.9008 11.926C35.9482 16.3658 35.9662 16.7487 36.1348 16.9148C36.2916 17.0691 36.5465 17.0991 37.9311 17.1265C39.4593 17.1565 39.5598 17.1466 39.8285 16.9388L40.1121 16.7193L40.0783 11.5654L40.0445 6.41159L39.7663 5.66478C38.8325 3.1577 37.1222 1.56553 34.7189 0.965867C33.5709 0.679446 32.2704 0.648 31.1884 0.880506ZM0.550906 1.22125C0.349564 1.41929 0.345978 1.55716 0.345978 9.07496V16.7273L0.615971 16.9361C0.863316 17.1274 1.02213 17.145 2.51154 17.145C4.32925 17.145 4.4724 17.0952 4.59709 16.4199C4.6309 16.2367 4.64505 12.7922 4.62844 8.76538C4.59944 1.72961 4.59064 1.43562 4.40303 1.23183C4.21931 1.03218 4.10629 1.01969 2.48183 1.01969C0.892416 1.01969 0.739644 1.03561 0.550906 1.22125ZM11.4508 1.09678C11.3876 1.1375 9.85454 2.87158 8.04397 4.95023C5.28134 8.12198 4.75212 8.77909 4.75202 9.03741C4.75191 9.29663 5.28195 9.94824 8.11241 13.1695L11.473 16.9938H13.5134H15.5539L15.7017 16.7349C15.7883 16.5832 15.822 16.3744 15.7833 16.231C15.7468 16.0963 14.3795 14.492 12.7448 12.6661C10.4748 10.1305 9.77264 9.28415 9.77264 9.08356C9.77264 8.88534 10.4997 7.98522 12.7441 5.40547C15.855 1.82968 15.9126 1.74432 15.556 1.24373C15.4007 1.02573 15.3451 1.01969 13.4811 1.0212C12.4277 1.0221 11.514 1.05607 11.4508 1.09678ZM21.3342 1.14567C21.2471 1.215 20.5236 2.00888 19.7265 2.90988L18.2772 4.548V10.6411V16.734L18.5014 16.9395C18.7075 17.1284 18.8569 17.145 20.3504 17.145C21.9387 17.145 21.9808 17.1394 22.2266 16.8976L22.4782 16.6503V9.10049C22.4782 1.61521 22.4763 1.5485 22.2657 1.28525C22.0337 0.994996 21.6045 0.930696 21.3342 1.14567ZM46.762 1.12219C43.9538 1.60231 42.0234 4.37939 42.5948 7.11707C42.8348 8.2666 43.2867 9.10683 44.0898 9.89594C45.398 11.1816 46.2269 11.3961 49.8949 11.3986C52.447 11.4004 52.4657 11.4019 52.687 11.6336C52.9925 11.9535 52.9799 12.4492 52.6583 12.7655L52.4068 13.0129H47.645H42.8833L42.671 13.2784C42.4769 13.521 42.4585 13.6785 42.4585 15.097C42.4585 16.6117 42.4648 16.6564 42.71 16.8976L42.9615 17.145L47.654 17.1433C51.3296 17.1419 52.4963 17.1102 53.0386 16.9972C56.263 16.3252 58.0905 12.8026 56.7007 9.9384C56.1444 8.79199 55.2247 7.9837 53.8832 7.46255C53.2997 7.23589 53.1155 7.22108 50.2624 7.17038L47.2562 7.11707L47.0091 6.83427C46.5769 6.33972 46.7355 5.58517 47.3296 5.30781C47.6138 5.17518 48.2686 5.1518 51.6986 5.1518C55.1844 5.1518 55.7641 5.13043 55.9608 4.99488C56.1809 4.8433 56.1887 4.78051 56.1887 3.13775V1.43743L55.9187 1.22861C55.6549 1.02452 55.552 1.01999 51.4358 1.03158C49.1188 1.03803 47.0156 1.07884 46.762 1.12219ZM58.4428 1.22125C58.2541 1.4069 58.2379 1.55716 58.2379 3.12051C58.2379 5.12166 58.2519 5.1518 59.1824 5.1518C59.5904 5.1518 59.8209 5.20642 59.9941 5.34419C60.2356 5.53648 60.2361 5.54031 60.2914 8.44328C60.3455 11.2853 60.353 11.3677 60.6285 12.1452C61.4508 14.4665 63.1507 16.0847 65.5641 16.8434C66.1728 17.0348 66.5854 17.0766 68.2921 17.1196C70.9236 17.1859 70.7384 17.3428 70.7384 15.0442C70.7384 13.5537 70.7166 13.3275 70.5591 13.191C70.4189 13.0696 70.0117 13.0247 68.6892 12.985C67.4642 12.9481 66.8646 12.8869 66.5125 12.7626C65.8453 12.5273 65.0832 11.8281 64.7839 11.1765C64.5509 10.6694 64.5379 10.5276 64.5073 8.15191L64.4753 5.65934L64.7332 5.40557L64.9912 5.1518H67.6599C71.0525 5.1518 70.764 5.34812 70.7196 3.06992C70.6883 1.45971 70.6792 1.39822 70.4454 1.21208C70.2136 1.02785 69.9593 1.01969 64.4256 1.01969C58.7844 1.01969 58.6429 1.02443 58.4428 1.22125ZM82.0835 4.7406C83.4438 5.45656 84.363 6.83941 84.4488 8.29966C84.6264 11.3162 81.8497 13.6228 79.1272 12.7202C77.9385 12.3262 77.1303 11.567 76.6645 10.4071C76.4767 9.93944 76.4351 9.63208 76.4306 8.67921C76.4236 7.17713 76.6554 6.45462 77.4128 5.61892C78.2651 4.67832 79.1296 4.33294 80.5237 4.37637C81.3425 4.40187 81.5173 4.44269 82.0835 4.7406Z" fill="#6B7280"/>
</svg>
