<svg width="150" height="26" viewBox="0 0 150 26" fill="none" xmlns="http://www.w3.org/2000/svg">
<path fill-rule="evenodd" clip-rule="evenodd" d="M18.8187 0.594309C17.5447 1.38483 17.2733 1.85529 16.2147 5.10906L15.2297 8.13752L13.5486 5.15658L11.8675 2.17592L8.42586 2.09792L4.98446 2.01993L4.69364 2.79675C4.53363 3.22416 4.15689 4.39121 3.85643 5.39054C2.31721 10.5079 0.714657 15.6654 0.48635 16.2356C0.344794 16.5887 0.229126 17.4543 0.229126 18.1594C0.229126 20.5569 1.88814 22.1626 4.36536 22.1626C5.34193 22.1626 5.68894 21.996 6.54791 21.1143C7.16425 20.4815 7.73681 19.512 7.99183 18.6684C8.22455 17.8996 8.63324 16.5347 8.90038 15.6352L9.38618 13.9996L11.0218 16.971L12.6574 19.9422L16.2663 19.8645C19.8478 19.787 19.8767 19.7812 20.0846 19.0877C20.1998 18.7033 20.6886 17.068 21.1706 15.4537C21.6525 13.8395 22.6131 10.7576 23.3049 8.60518C24.0019 6.43656 24.5472 4.22153 24.528 3.63731C24.4371 0.888381 21.1596 -0.858422 18.8187 0.594309ZM21.9857 2.59521C23.1396 3.76645 22.4096 5.94961 20.8641 5.94961C19.7247 5.94961 19.2546 5.68713 18.8013 4.79766C18.4378 4.08401 18.4383 3.90064 18.8057 3.17944C19.0337 2.73219 19.3777 2.30198 19.5702 2.22316C20.3619 1.90001 21.4685 2.07025 21.9857 2.59521ZM129.943 3.85312C129.943 5.59852 129.329 6.50868 128.152 6.50868C127.483 6.50868 127.464 6.56458 127.464 8.46542V10.4221H128.565H129.667V13.6457C129.667 17.1192 129.95 18.2421 131.077 19.2584C132.232 20.2978 134.316 20.7489 135.932 20.3092C136.499 20.1549 136.552 19.9755 136.552 18.2163V16.2923H135.48C134.149 16.2923 134.073 16.1135 134.073 12.915V10.4221H135.313H136.552V8.46542V6.50868H135.313H134.073V4.8544C134.073 2.35733 134.037 2.31568 131.841 2.31568H129.943V3.85312ZM13.5866 8.09503L14.737 10.2424L14.2467 11.6602C13.9771 12.4398 13.5543 13.8009 13.3073 14.6851C13.0606 15.5692 12.7521 16.2923 12.6219 16.2923C12.4918 16.2923 11.8716 15.3478 11.244 14.1936L10.1025 12.0948L11.1275 8.87716C11.6912 7.10716 12.2162 5.72403 12.2944 5.80342C12.3723 5.88253 12.954 6.91372 13.5866 8.09503ZM35.8325 6.30546C35.3449 6.49414 34.6941 6.86732 34.3868 7.13484C33.8519 7.60054 33.828 7.59746 33.828 7.06495C33.828 6.55899 33.641 6.50868 31.7625 6.50868H29.697V13.3572V20.2058H31.7625H33.828V16.334C33.828 11.1369 34.2163 10.1427 36.2457 10.1427C37.7946 10.1427 37.959 10.6748 37.959 15.6855V20.2058H40.1828H42.4067L42.3172 14.6403L42.2277 9.07477L41.3764 8.00139C40.9082 7.41101 40.1726 6.75271 39.7416 6.53831C38.6601 6.00076 36.8934 5.89538 35.8325 6.30546ZM49.8012 6.33314C46.3468 7.49683 44.7095 9.71523 44.7201 13.2174C44.7253 14.9855 44.8486 15.541 45.5069 16.7619C46.9192 19.3817 48.8646 20.5164 51.9435 20.5164C53.7754 20.5164 54.152 20.4185 55.4961 19.5925C59.5782 17.0837 60.2498 11.4966 56.8927 7.97567C55.2726 6.27583 52.1305 5.5482 49.8012 6.33314ZM90.5604 6.14025C90.3332 6.22076 89.6827 6.52322 89.1145 6.81253C88.2506 7.25224 88.0818 7.27041 88.0818 6.92351C88.0818 6.59366 87.6588 6.50868 86.0163 6.50868H83.9508V15.873V25.2374H86.154H88.3572V22.4385V19.6392L89.3547 20.0624C91.6452 21.0338 94.6727 20.278 96.375 18.3101C97.6708 16.8119 98.0636 15.6005 98.053 13.1306C98.0385 9.52796 96.7084 7.38725 93.8486 6.36304C92.7011 5.95213 91.3497 5.86044 90.5604 6.14025ZM105.018 6.27639C102.449 7.15524 100.576 8.88051 99.9729 10.9272C98.9517 14.3871 100.607 18.2834 103.801 19.9377C105.362 20.7456 108.318 20.7414 109.97 19.9291C114.402 17.7517 115.421 11.9962 112.065 8.11543C110.546 6.35941 107.273 5.50515 105.018 6.27639ZM121.75 6.5056C121.257 6.81029 120.855 6.93553 120.855 6.78402C120.855 6.62608 119.915 6.50868 118.651 6.50868H116.448V13.3572V20.2058H118.651H120.855V15.2707C120.855 10.5071 120.872 10.3517 121.358 10.7981C122.156 11.531 123.945 11.4021 124.783 10.5515C125.729 9.5908 125.921 8.64208 125.394 7.515C124.667 5.96219 123.258 5.57197 121.75 6.5056ZM141.928 6.3963C139.619 7.2542 138.203 9.56426 138.767 11.5515C139.267 13.3078 140.583 14.3772 143.049 15.0294C144.836 15.5016 145.469 15.9712 145.217 16.6368C144.79 17.7666 142.465 17.2763 142.133 15.9863C142.017 15.5351 141.829 15.4842 140.858 15.6402C139.211 15.9049 138.491 16.1238 138.486 16.3622C138.459 17.4409 138.593 17.8004 139.347 18.6718C140.495 20.0001 141.738 20.4853 143.988 20.4853C147.528 20.4853 149.497 18.8213 149.497 15.8272C149.497 13.622 148.116 12.1946 145.365 11.5543C143.409 11.0989 143.024 10.8895 143.024 10.2824C143.024 8.98924 145.41 9.07226 145.593 10.3718C145.676 10.9642 145.773 10.9955 146.969 10.8174C149.255 10.4766 149.501 10.3039 149.213 9.24697C148.725 7.4658 146.154 5.90936 143.798 5.96918C143.372 5.98009 142.531 6.1724 141.928 6.3963ZM59.7155 6.86788C59.7155 7.19829 60.5633 10.0232 62.837 17.2707L63.7138 20.066L65.951 20.1468C68.1786 20.2271 68.1889 20.2243 68.375 19.4715C68.7437 17.9794 70.8059 12.0817 70.9186 12.1961C70.9819 12.2604 71.6203 14.0574 72.3371 16.1894L73.6406 20.066L75.7284 20.1471C78.1801 20.2422 77.7378 20.8739 79.6989 14.4754C80.4058 12.1693 81.218 9.53829 81.5036 8.62894C81.7891 7.71961 82.023 6.86508 82.023 6.73035C82.023 6.59534 81.0649 6.52182 79.8936 6.56682L77.7642 6.64844L76.8144 10.0728C76.2919 11.9559 75.7929 13.497 75.7056 13.497C75.6183 13.497 75.1223 12.2075 74.6034 10.6318C73.1168 6.11649 73.4702 6.50868 70.8861 6.50868H68.6501L67.448 10.2061C66.1272 14.268 66.1764 14.2501 65.3228 10.9812C65.1021 10.1356 64.7328 8.78352 64.5021 7.97623L64.0829 6.50868H61.8992C60.3047 6.50868 59.7155 6.60539 59.7155 6.86788ZM53.2004 10.4529C54.1147 10.8758 54.5747 11.8511 54.5747 13.3668C54.5747 15.6648 52.7794 17.0812 50.8794 16.2826C49.2014 15.577 48.5426 13.5281 49.4026 11.6884C50.0614 10.2793 51.6838 9.75152 53.2004 10.4529ZM93.0602 10.9597C94.5788 12.501 93.9795 15.7229 92.0746 16.2568C89.8292 16.8861 88.3572 15.6243 88.3572 13.0701C88.3572 11.296 89.4423 10.1427 91.1112 10.1427C92.0084 10.1427 92.4287 10.319 93.0602 10.9597ZM108.292 10.4585C109.524 11.0282 110.09 13.6533 109.302 15.1468C108.896 15.9169 107.231 16.6697 106.402 16.4584C105.212 16.1557 104.37 15.2111 104.188 13.9784C103.774 11.1668 105.894 9.34929 108.292 10.4585ZM5.33642 16.9786C6.39644 18.0543 6.20586 19.3865 4.89303 20.0756C3.62619 20.7405 1.88153 19.639 1.88153 18.1742C1.88153 17.4247 3.12469 16.2923 3.94703 16.2923C4.33947 16.2923 4.96463 16.6012 5.33642 16.9786Z" fill="#6B7280"/>
</svg>
