<svg width="132" height="26" viewBox="0 0 132 26" fill="none" xmlns="http://www.w3.org/2000/svg">
<path fill-rule="evenodd" clip-rule="evenodd" d="M11.0416 0.19288C11.0314 0.260211 11.0292 0.363162 11.0364 0.421668C11.0435 0.480173 10.8288 0.529364 10.5592 0.531005C10.2894 0.5328 9.72602 0.620071 9.30691 0.724987C8.88782 0.829739 8.38291 0.948874 8.18494 0.989734C7.98697 1.03058 7.48984 1.24598 7.08004 1.46872C6.67039 1.69131 6.3351 1.83038 6.3351 1.77792C6.3351 1.66777 5.48776 2.29009 5.04504 2.72545C4.88029 2.8874 4.65824 2.98399 4.55156 2.94018C4.44489 2.89622 4.37386 2.91665 4.39382 2.98546C4.41379 3.05425 4.15578 3.3641 3.82065 3.67412C2.93063 4.49679 2.89528 4.5365 2.69395 4.94015C2.5926 5.14297 2.44295 5.26472 2.36126 5.21062C2.27957 5.15636 2.22257 5.17271 2.23461 5.2469C2.28932 5.58503 2.19956 5.6499 1.95359 5.45037C1.72666 5.26618 1.71539 5.26814 1.87739 5.46295C2.11665 5.75073 2.12641 6.01156 1.89187 5.85631C1.77971 5.78179 1.75745 5.81169 1.8306 5.93867C1.89369 6.048 1.84615 6.2616 1.72499 6.41325C1.53769 6.6476 1.30573 7.12822 1.23701 7.42435C1.22664 7.4693 1.10929 7.76345 0.9764 8.07805C0.843354 8.39263 0.645535 8.98094 0.536569 9.38539C0.427755 9.78994 0.307969 10.2312 0.270631 10.3659C0.23314 10.5008 0.19367 11.5671 0.18285 12.7356C0.161514 15.0454 0.376243 16.2772 1.09298 17.9562C1.30513 18.4531 1.43482 18.936 1.38103 19.0292C1.32722 19.1225 1.34978 19.1787 1.43101 19.154C1.56375 19.1137 2.67749 20.5193 2.67749 20.727C2.67749 20.7735 2.95318 21.1135 3.2903 21.4822C3.62726 21.8509 3.86622 22.2166 3.82126 22.2947C3.77615 22.3728 3.81958 22.4898 3.91773 22.5549C4.02913 22.6287 4.05535 22.6025 3.98737 22.4846C3.92763 22.3808 3.92337 22.2959 3.97792 22.2959C4.15928 22.2959 4.88425 22.9716 5.08832 23.331C5.20323 23.5332 5.25565 23.5663 5.2107 23.4083C5.1476 23.1862 5.26389 23.2168 5.79972 23.5639C6.16685 23.8018 6.42701 24.0664 6.37762 24.1518C6.3284 24.2374 6.36513 24.2563 6.45947 24.1938C6.55381 24.1313 6.83803 24.195 7.09101 24.3352C7.34415 24.4756 7.56894 24.5838 7.59088 24.5756C7.61268 24.5675 7.80196 24.6295 8.01151 24.7133C8.6106 24.9535 9.9761 25.1696 10.4173 25.0945C10.4832 25.0832 10.5234 24.6513 10.5068 24.1344C10.49 23.6174 10.464 22.0181 10.449 20.5799C10.4307 18.8445 10.3537 17.7909 10.2201 17.4474C10.1093 17.1625 10.0585 16.8868 10.1073 16.8345C10.1561 16.7823 10.127 16.7395 10.0425 16.7395C9.82706 16.7395 9.51037 15.9377 9.63428 15.7058C9.69066 15.6002 9.68381 15.5649 9.61919 15.6274C9.48507 15.7568 8.77352 14.9114 8.77352 14.6226C8.77352 14.5179 8.70494 14.4777 8.62111 14.5332C8.5373 14.5888 8.46871 14.5563 8.46871 14.4612C8.46871 14.366 8.37194 14.2881 8.25368 14.2881C7.96122 14.2881 7.22268 13.323 7.34827 13.1051C7.4039 13.0086 7.37799 12.9773 7.29035 13.0353C7.10625 13.1574 6.74567 12.7584 6.89518 12.598C6.95034 12.5389 6.92155 12.4905 6.83117 12.4905C6.7408 12.4905 6.68486 12.3618 6.70697 12.2045C6.72891 12.0471 6.6457 11.752 6.5221 11.5485C6.0047 10.6972 6.39744 7.08624 7.03585 6.82361C7.15243 6.77556 7.21415 6.678 7.173 6.60658C7.13185 6.53533 7.40648 6.12677 7.78352 5.69893C8.1604 5.27109 8.46979 4.98788 8.471 5.06959C8.47237 5.1513 8.52374 5.13561 8.5853 5.03478C8.83874 4.61985 10.7562 3.93167 11.5929 3.95537C12.2417 3.97383 13.2472 4.17681 13.5331 4.34693C13.7233 4.46019 13.9132 4.56069 13.9552 4.57033C14.2367 4.63488 14.8696 5.05145 14.8696 5.17238C14.8696 5.25311 14.9381 5.2737 15.0219 5.21814C15.1058 5.16257 15.1743 5.23187 15.1743 5.37192C15.1743 5.51197 15.2814 5.6267 15.412 5.6267C15.5426 5.6267 15.6071 5.70024 15.5553 5.79012C15.5036 5.88 15.5209 5.95354 15.5939 5.95354C15.772 5.95354 16.4443 6.94062 16.4443 7.20226C16.4443 7.31649 16.4994 7.37337 16.5668 7.32875C16.6343 7.28414 16.7305 7.45279 16.7806 7.70365C16.8308 7.95449 16.9328 8.32187 17.0073 8.51994C17.3004 9.29996 16.9492 12.0349 16.4929 12.524C16.3844 12.6403 16.2814 12.79 16.2641 12.8565C16.1484 13.3025 16.0261 13.471 15.8183 13.471C15.6877 13.471 15.6259 13.5194 15.6811 13.5786C15.8306 13.7389 15.47 14.1379 15.2859 14.0158C15.1934 13.9545 15.1728 13.9899 15.2367 14.1007C15.2999 14.2103 15.2293 14.3383 15.0697 14.4039C14.5142 14.632 13.2635 16.5481 13.1454 17.3523C13.1041 17.6334 13.024 17.9437 12.9674 18.0419C12.7809 18.3654 12.8617 24.9554 13.0537 25.0825C13.2407 25.2066 14.2453 25.1441 14.3796 25.0002C14.4241 24.9524 14.5656 25.0047 14.6943 25.1163C14.8808 25.2782 14.9049 25.2778 14.8136 25.1149C14.7507 25.0026 14.7722 24.9106 14.8613 24.9106C14.9505 24.9106 15.3754 24.7286 15.8054 24.5062C16.2355 24.2836 16.6466 24.1409 16.719 24.189C16.7914 24.237 16.8507 24.186 16.8507 24.0759C16.8507 23.9657 16.8954 23.9235 16.9499 23.982C17.0045 24.0405 17.1469 23.9608 17.2661 23.8049C17.401 23.6285 17.441 23.6142 17.3718 23.7667C17.3109 23.9015 17.46 23.8191 17.7034 23.5835C17.947 23.3479 18.3519 23.0189 18.6034 22.852C18.8548 22.6851 19.0965 22.5101 19.1404 22.4631C19.6868 21.8785 20.5251 21.1228 20.4309 21.2998C20.348 21.4555 20.3666 21.491 20.4888 21.41C20.5879 21.3444 20.6519 21.2043 20.6313 21.0987C20.5876 20.8742 21.0989 19.9854 21.3811 19.7955C21.4878 19.7236 21.5752 19.5582 21.5752 19.4278C21.5752 19.2975 21.6437 19.1908 21.7276 19.1908C21.8114 19.1908 21.88 19.0895 21.88 18.9656C21.88 18.8419 21.9788 18.6526 22.0996 18.5451C22.2203 18.4378 22.2849 18.2544 22.2431 18.1378C22.2013 18.0211 22.2708 17.8145 22.3974 17.6789C22.5238 17.5431 22.5896 17.3914 22.5432 17.3419C22.4969 17.2922 22.5153 17.1547 22.5842 17.0364C22.6531 16.9179 22.7299 16.6798 22.7549 16.5071C22.7799 16.3345 22.8556 16.1139 22.923 16.0168C23.2423 15.5576 23.2514 10.7708 22.9349 9.77874C22.8229 9.42757 22.7282 9.10237 22.7247 9.05614C22.7068 8.82488 21.8056 6.65659 21.6389 6.44381C21.5333 6.30899 21.4243 6.09736 21.3967 5.97332C21.3691 5.84944 21.2094 5.58649 21.0418 5.38908C20.4835 4.7318 20.2053 4.31931 20.3193 4.31817C20.3814 4.31767 20.243 4.18335 20.0118 4.01992C19.7806 3.8565 19.6435 3.65467 19.7071 3.57165C19.7706 3.48847 19.7621 3.4731 19.6882 3.53733C19.5057 3.69602 18.9526 3.36264 19.0676 3.1631C19.1182 3.0755 19.0717 3.02402 18.9646 3.0487C18.8572 3.07337 18.7664 3.00784 18.7626 2.90292C18.7588 2.79817 18.6932 2.65109 18.6171 2.57608C18.5365 2.49698 18.5242 2.52558 18.5879 2.64423C18.6482 2.75666 18.6227 2.8485 18.5315 2.8485C18.4399 2.8485 18.3259 2.73868 18.2778 2.60435C18.2297 2.47002 18.1291 2.40073 18.0539 2.45057C17.9789 2.50025 17.9175 2.471 17.9175 2.38569C17.9175 2.30022 17.649 2.11506 17.3209 1.97436C16.9928 1.83348 16.6795 1.64049 16.6245 1.54537C16.5697 1.45026 16.461 1.41463 16.383 1.46644C16.305 1.51808 16.2411 1.48245 16.2411 1.38734C16.2411 1.29223 16.1898 1.22294 16.1269 1.23355C16.0639 1.24435 15.9783 1.23862 15.9363 1.22114C15.8513 1.18568 15.7931 1.16966 14.4592 0.817808C13.3762 0.53198 12.2754 0.372159 11.5424 0.394051C11.2278 0.403366 11.0717 0.344697 11.1322 0.239782C11.186 0.146631 11.1915 0.0703125 11.1447 0.0703125C11.0979 0.0703125 11.0514 0.12555 11.0416 0.19288ZM39.8122 4.88803C39.4069 5.00994 39.0362 5.15179 38.988 5.20327C38.94 5.25491 38.8093 5.21569 38.6977 5.11632C38.5412 4.97709 38.4616 5.024 38.3503 5.32207C38.2711 5.53453 38.2018 5.6432 38.1964 5.56362C38.1913 5.48386 38.0072 5.6115 37.7874 5.84699C37.5678 6.08248 37.3261 6.23415 37.2501 6.18397C37.1744 6.13381 37.1313 6.16044 37.1543 6.2433C37.2187 6.47454 36.1961 7.43726 36.0142 7.31682C35.9182 7.25308 35.8991 7.2892 35.9667 7.40622C36.1074 7.65086 35.7705 8.11204 35.5552 7.9692C35.4678 7.91135 35.4417 7.94224 35.4968 8.03801C35.6489 8.30194 35.4319 8.7618 35.2003 8.66653C35.0881 8.62045 34.9491 8.66424 34.8917 8.76409C34.8236 8.88176 34.8572 8.89909 34.9868 8.81312C35.14 8.71164 35.1616 8.77276 35.0789 9.0739C35.0197 9.29012 34.9541 9.5407 34.9334 9.63057C34.9125 9.72044 34.8156 9.94969 34.7177 10.1402C34.6199 10.3307 34.5833 10.5328 34.6362 10.5897C34.689 10.6464 34.6696 10.6929 34.5927 10.6929C34.4329 10.6929 34.4118 10.9262 34.4093 12.7356C34.4067 14.6254 34.4387 15.0835 34.5673 14.9982C34.6714 14.9294 34.743 15.3471 34.7209 15.8924C34.7161 16.0108 34.7499 16.0669 34.7962 16.0174C34.8834 15.924 35.2912 16.6677 35.2912 16.9204C35.2912 17.2209 36.8923 19.0454 37.7498 19.7218C38.7869 20.5402 40.3389 21.0228 41.9172 21.0178C43.0148 21.0143 43.9013 20.8926 44.1939 20.7049C44.2847 20.6466 44.2574 20.7417 44.133 20.9162C43.9142 21.2237 43.9169 21.2246 44.2215 20.9473C44.3947 20.7898 44.5993 20.7162 44.6762 20.7839C44.7533 20.8515 44.7649 20.8395 44.7021 20.757C44.6393 20.6749 45.0005 20.3622 45.5048 20.0625C46.5129 19.4634 46.6398 19.419 46.4772 19.722C46.4136 19.8406 46.4258 19.8692 46.5064 19.7901C46.5826 19.7151 46.6451 19.568 46.6451 19.4633C46.6451 19.3584 46.7251 19.2725 46.8229 19.2725C46.9206 19.2725 47.0577 19.2055 47.1277 19.1238C47.203 19.0356 47.1615 19.0289 47.0261 19.1075C46.9003 19.1804 47.0323 18.9731 47.3193 18.6471C47.7495 18.1583 47.8834 18.088 48.0813 18.2469C48.2768 18.4038 48.2883 18.3995 48.1427 18.2232C47.9223 17.9563 48.1988 17.1843 48.458 17.3429C48.5505 17.3993 48.5775 17.3876 48.5181 17.317C48.4585 17.2462 48.5242 16.9586 48.6641 16.6779C48.8038 16.3971 48.9271 16.1308 48.9378 16.0858C48.9486 16.0408 48.9932 15.8938 49.0369 15.7589C49.4058 14.6235 49.4966 14.1035 49.4966 13.1258C49.4966 12.391 49.5571 11.9994 49.6709 11.9977C49.767 11.9963 49.7426 11.9239 49.6169 11.8368C49.4911 11.7496 49.4368 11.6773 49.4958 11.6758C49.555 11.6745 49.5016 11.3641 49.3773 10.9861C49.2528 10.6082 49.1843 10.206 49.2249 10.0926C49.2656 9.97894 49.232 9.84206 49.1506 9.78791C49.069 9.73386 49.0482 9.60982 49.1045 9.51223C49.1607 9.41464 49.1376 9.38066 49.0532 9.43674C48.8622 9.5632 48.5086 8.77259 48.6479 8.53089C48.7085 8.42548 48.6782 8.40162 48.5724 8.47173C48.4699 8.53971 48.353 8.46438 48.2944 8.29262C48.2388 8.12969 48.0335 7.82081 47.8384 7.6064C47.643 7.39183 47.4832 7.11172 47.4832 6.98393C47.4832 6.85597 47.4205 6.79289 47.3438 6.84371C47.2672 6.89453 47.1815 6.88048 47.1533 6.81249C47.1253 6.74451 46.812 6.47765 46.4573 6.21927C46.1025 5.96106 45.856 5.67376 45.9092 5.58127C45.9643 5.48566 45.9321 5.46197 45.8349 5.52636C45.7405 5.58894 45.464 5.52946 45.2201 5.39414C43.895 4.65939 41.3613 4.42227 39.8122 4.88803ZM88.4855 4.90061C88.6948 5.16977 88.6753 20.2864 88.4655 20.4255C88.1135 20.6587 88.7214 20.8202 89.962 20.8226L91.2163 20.8251L91.2574 13.2668C91.28 9.10971 91.2772 5.51116 91.2511 5.26995C91.204 4.83344 91.1977 4.83132 89.7776 4.77967C88.788 4.74373 88.3925 4.78066 88.4855 4.90061ZM128.953 4.83197C128.987 4.88917 128.908 5.03086 128.778 5.14689C128.647 5.26292 128.433 5.58012 128.302 5.8519C128.171 6.12367 127.987 6.43907 127.893 6.55265C127.443 7.09718 127.337 7.26093 127.438 7.26093C127.498 7.26093 127.406 7.42631 127.234 7.62863C127.062 7.83095 126.844 8.1591 126.749 8.35799C126.634 8.59593 126.484 8.68843 126.31 8.62845C126.109 8.55933 126.095 8.57534 126.252 8.69513C126.418 8.8226 126.377 8.98287 126.041 9.52777C125.811 9.89892 125.56 10.2025 125.483 10.2025C125.406 10.2025 125.385 10.2761 125.436 10.3659C125.488 10.4559 125.458 10.5294 125.369 10.5294C125.28 10.5294 125.207 10.6002 125.207 10.6866C125.207 10.7731 124.882 11.3575 124.484 11.9852L123.76 13.1263L123.492 12.7676C123.214 12.395 122.197 10.8141 121.931 10.3395C121.847 10.1901 121.547 9.71339 121.265 9.28018C120.982 8.84711 120.733 8.38103 120.711 8.24441C120.689 8.10795 120.603 8.01186 120.519 8.03082C120.436 8.04961 120.204 7.73714 120.006 7.33627C119.807 6.93523 119.594 6.60724 119.531 6.60724C119.468 6.60724 119.416 6.51458 119.416 6.40132C119.416 6.28808 119.242 5.99391 119.029 5.74764C118.816 5.50136 118.692 5.29985 118.753 5.29985C118.815 5.29985 118.732 5.19183 118.569 5.05994C118.377 4.90355 117.902 4.81825 117.207 4.81481L116.139 4.80958L116.17 12.7764L116.2 20.7433L117.503 20.7905L118.806 20.8378L118.824 16.133C118.833 13.5454 118.828 11.2629 118.813 11.0605C118.798 10.8582 118.87 10.6929 118.973 10.6929C119.078 10.6929 119.122 10.7358 119.074 10.7881C119.025 10.8405 119.099 11.0191 119.239 11.1851C119.73 11.7685 119.874 11.9881 119.874 12.1568C119.874 12.2504 119.942 12.3271 120.025 12.3271C120.109 12.3271 120.178 12.4373 120.178 12.5722C120.178 12.707 120.239 12.8173 120.312 12.8173C120.386 12.8173 120.531 13.0379 120.636 13.3076C120.74 13.5772 120.876 13.7979 120.939 13.7979C121.001 13.7979 121.239 14.1005 121.468 14.4704C121.695 14.8402 121.799 15.0876 121.697 15.0203C121.596 14.9527 121.862 15.375 122.29 15.9585C122.718 16.5418 123.036 17.0526 122.998 17.0936C122.96 17.1344 123.25 17.1422 123.643 17.1103C124.037 17.0786 124.411 16.9639 124.473 16.8552C124.668 16.514 124.973 16.053 125.132 15.857C125.388 15.5401 125.886 14.7216 126.112 14.2473C126.229 14.0002 126.421 13.7979 126.537 13.7979C126.654 13.7979 126.702 13.7161 126.644 13.6161C126.587 13.5163 126.6 13.3875 126.674 13.3301C126.748 13.2728 126.884 13.0788 126.976 12.899C127.07 12.7193 127.235 12.5722 127.345 12.5722C127.455 12.5722 127.557 12.3957 127.571 12.1802C127.587 11.9644 127.711 11.6998 127.848 11.5919C127.986 11.4841 128.054 11.348 128 11.2895C127.945 11.231 127.98 11.1831 128.078 11.1831C128.175 11.1831 128.255 11.0684 128.255 10.9283C128.255 10.7882 128.324 10.7189 128.408 10.7745C128.505 10.8382 128.56 12.7101 128.56 15.8502C128.56 19.717 128.603 20.8266 128.751 20.8325C130.959 20.9204 131.264 20.8992 131.22 20.6617C131.195 20.5268 131.17 16.9107 131.163 12.6259L131.151 4.8354L130.022 4.78163C129.401 4.75206 128.921 4.77477 128.953 4.83197ZM54.6461 12.7987V20.8251H56.0145H57.383L57.4242 17.5157L57.4655 14.2064L58.4953 14.158L59.5249 14.1097L59.8666 14.73C60.0545 15.0713 60.1912 15.4056 60.1703 15.4729C60.1496 15.5404 60.1942 15.5772 60.2697 15.5547C60.3451 15.5323 60.3997 15.5505 60.391 15.5955C60.3821 15.6405 60.4896 15.8243 60.6296 16.0041C61.1397 16.6589 61.6594 17.487 61.886 18.006C62.0135 18.2982 62.197 18.5371 62.2936 18.5371C62.3902 18.5371 62.4292 18.5802 62.3801 18.6328C62.331 18.6856 62.4295 18.8996 62.599 19.1084C62.7684 19.3174 62.8984 19.5336 62.8879 19.5884C62.8774 19.6435 63.0348 19.8666 63.2376 20.084C63.4405 20.3016 63.6307 20.551 63.6603 20.6381C63.7383 20.8687 66.6859 20.9549 66.6859 20.7268C66.6856 20.3698 66.3486 19.5197 66.2366 19.594C66.1736 19.6358 66.026 19.4702 65.9086 19.2261C65.7912 18.982 65.5445 18.6035 65.3605 18.3848C65.1762 18.1661 65.0603 17.9272 65.1027 17.8537C65.1451 17.7801 65.107 17.72 65.0183 17.72C64.9297 17.72 64.8569 17.6421 64.8569 17.5469C64.8569 17.4518 64.9362 17.4263 65.0329 17.4904C65.1428 17.5633 65.1674 17.5351 65.0985 17.4157C65.0379 17.3105 64.9298 17.2632 64.8583 17.3105C64.6759 17.4314 63.7631 15.9379 63.8876 15.722C63.953 15.6084 63.9172 15.5929 63.7878 15.6788C63.6365 15.779 63.6135 15.7354 63.6961 15.5048C63.7566 15.3355 63.7567 15.25 63.6962 15.3149C63.5316 15.4913 63.0282 14.9374 63.0282 14.58C63.0282 14.4089 62.9709 14.3068 62.9011 14.353C62.8312 14.3992 62.7741 14.3426 62.7741 14.2268C62.7741 14.1111 63.0885 13.9177 63.4727 13.7969C63.8568 13.6761 64.262 13.4614 64.3729 13.3199C64.5374 13.1102 64.5564 13.1079 64.4759 13.3076C64.4215 13.4425 64.49 13.4057 64.6277 13.2258C64.7657 13.0461 64.9473 12.9193 65.0314 12.944C65.1156 12.9686 65.141 12.9134 65.0878 12.8214C65.0348 12.7292 65.0754 12.6539 65.1782 12.6539C65.2809 12.6539 65.3213 12.607 65.2678 12.5498C65.2144 12.4924 65.2939 12.2535 65.4444 12.0187C66.4344 10.4741 66.2956 7.62585 65.1775 6.54088C65.0125 6.38073 64.9148 6.14541 64.9604 6.0181C65.014 5.86791 64.9685 5.81725 64.8304 5.87395C64.7133 5.92217 64.4829 5.83114 64.3182 5.67164C63.6412 5.01598 63.0849 4.93329 58.799 4.85141L54.6461 4.77216V12.7987ZM72.3121 12.5313C72.3052 16.7784 72.2692 20.4737 72.2322 20.7433C72.1883 21.0638 72.2118 21.1579 72.3 21.0153C72.3743 20.8952 72.5644 20.8117 72.7226 20.8298C72.8809 20.848 73.4391 20.8541 73.9628 20.8438C74.7165 20.829 74.9154 20.7718 74.9154 20.5703C74.9154 20.4266 74.9885 20.3639 75.083 20.4266C75.2032 20.5064 75.2055 20.4474 75.0908 20.2176C74.9938 20.0231 74.943 18.8128 74.9614 17.1337L74.9915 14.3698L78.3718 14.3259C82.2259 14.2757 81.8956 14.4414 81.7734 12.6196L81.6972 11.4834L78.4587 11.5024C75.9136 11.5174 75.2197 11.4766 75.2179 11.3115C75.2162 11.163 75.171 11.1733 75.0636 11.3465C74.9591 11.515 74.9201 10.9662 74.9383 9.58974L74.9651 7.58777H78.9661C81.4345 7.58777 82.9866 7.52665 83.018 7.42811C83.0459 7.34035 83.0462 6.71526 83.0187 6.03901L82.9685 4.80958H77.6465H72.3246L72.3121 12.5313ZM97.3183 9.43983C97.3183 11.9866 97.271 14.1214 97.2121 14.1839C97.0606 14.3469 97.0162 14.7956 97.1619 14.6992C97.2295 14.6547 97.3376 14.9668 97.4023 15.3929C97.467 15.8189 97.549 16.2778 97.5847 16.4126C97.6195 16.5475 97.6571 16.7866 97.6687 16.9437C97.6793 17.101 97.7421 17.2297 97.8077 17.2297C97.8743 17.2297 97.9274 17.3401 97.9274 17.4749C97.9274 17.6097 98.0075 17.72 98.106 17.72C98.2035 17.72 98.2401 17.7661 98.188 17.8223C98.1359 17.8785 98.2952 18.1155 98.5432 18.3491C98.7913 18.5824 98.995 18.8795 98.995 19.0092C98.995 19.1391 99.0404 19.1967 99.0954 19.1374C99.1504 19.078 99.2817 19.1614 99.3879 19.3225C99.4931 19.4838 99.8908 19.788 100.273 19.9984C100.654 20.2091 100.941 20.4259 100.91 20.4806C100.879 20.5353 101.06 20.5881 101.312 20.5983C101.564 20.6082 101.815 20.6865 101.869 20.7719C101.988 20.9624 105.104 21.0004 105.324 20.8143C105.41 20.741 105.651 20.6415 105.857 20.5933C106.676 20.4028 107.377 20.0816 107.377 19.8973C107.377 19.7904 107.499 19.6614 107.648 19.6108C107.905 19.5235 109.28 17.9459 109.283 17.7362C109.284 17.6824 109.416 17.3441 109.578 16.9846C110.003 16.0402 110.002 16.0596 109.983 9.6714L109.967 4.80958H108.678H107.389L107.335 10.08C107.305 12.9787 107.243 15.4974 107.198 15.6773C107.146 15.8806 106.991 15.9992 106.788 15.9912C106.609 15.9839 106.462 16.0391 106.462 16.1138C106.462 16.1883 106.563 16.2492 106.686 16.2492C106.834 16.2492 106.877 16.3459 106.814 16.5352C106.722 16.8106 106.157 17.4899 106.157 17.3257C106.157 17.2816 105.982 17.4205 105.765 17.6346C105.546 17.8524 105.243 17.9965 105.076 17.9621C104.912 17.9282 104.814 17.9622 104.857 18.0376C104.901 18.1129 104.42 18.1828 103.789 18.1931C102.92 18.207 102.499 18.1328 102.048 17.8864C101.344 17.5012 101.164 17.2479 101.452 17.0446C101.595 16.9429 101.529 16.9194 101.243 16.9703C100.899 17.0314 100.808 16.9738 100.732 16.6479C100.68 16.43 100.585 16.2867 100.52 16.3299C100.194 16.5458 100.062 14.6777 100.062 9.88502V4.80958H98.69H97.3183V9.43983ZM43.1399 7.64791C43.3074 7.68174 43.5001 7.71884 43.568 7.73028C43.6357 7.74188 43.6528 7.81788 43.6059 7.89942C43.5588 7.98081 43.6577 8.00908 43.8255 7.96201C43.9932 7.91495 44.1304 7.95008 44.1304 8.03997C44.1304 8.12985 44.2765 8.24425 44.4551 8.29442C44.6914 8.3606 44.7513 8.46438 44.6756 8.67617C44.6185 8.836 44.6202 8.91461 44.6799 8.85071C44.7394 8.78681 44.8973 8.82587 45.0308 8.93748C45.2489 9.11975 45.2512 9.1071 45.054 8.81345C44.9333 8.63368 45.0772 8.74399 45.3736 9.05855C45.9964 9.71947 46.3181 10.3034 46.1859 10.5328C46.1351 10.6208 46.158 10.6929 46.2367 10.6929C46.5345 10.6929 46.8631 12.305 46.7199 13.0624C46.7028 13.1523 46.7005 13.4192 46.7147 13.6554C46.753 14.2961 46.1248 15.6359 45.8408 15.5191C45.6537 15.442 45.6459 15.4692 45.7984 15.6663C46.0106 15.9405 45.8724 16.3119 45.6203 16.1449C45.5264 16.0827 45.4984 16.1106 45.5554 16.2096C45.6107 16.3054 45.3885 16.611 45.0617 16.8885C44.405 17.4462 44.2056 17.5179 44.3381 17.1481C44.3861 17.0132 44.3592 16.9029 44.2781 16.9029C44.1969 16.9029 44.1304 17.0783 44.1304 17.2924C44.1304 17.6964 43.8123 17.8947 43.0636 17.957C42.854 17.9743 42.5707 18.0431 42.434 18.1096C41.9306 18.3543 39.8877 17.8732 39.6651 17.4574C39.5981 17.3322 39.438 17.2297 39.3095 17.2297C39.0203 17.2297 38.0981 16.2317 37.9619 15.7714C37.9067 15.5847 37.8084 15.4321 37.7435 15.4321C37.5158 15.4321 37.2147 14.0309 37.1816 12.8173C37.1516 11.7183 37.2014 11.4744 37.6629 10.4592C38.1494 9.38838 39.1741 8.16956 39.4397 8.34556C39.5051 8.38871 39.5584 8.33837 39.5584 8.23362C39.5584 8.12854 39.6645 8.08671 39.795 8.14047C39.9251 8.19391 39.9923 8.16972 39.9443 8.08654C39.8964 8.00352 40.1844 7.82604 40.5841 7.69221C41.2319 7.47534 42.2026 7.45867 43.1399 7.64791ZM61.4706 7.5309C62.0841 7.60984 62.4027 7.75954 62.8111 8.16073C63.1057 8.45016 63.3328 8.75217 63.3157 8.83192C63.2984 8.91166 63.337 9.10546 63.4012 9.2629C63.4653 9.42024 63.4653 9.67749 63.4012 9.83483C63.337 9.99226 63.2912 10.1625 63.2994 10.2135C63.3371 10.4484 62.554 11.211 62.1465 11.3364C61.8967 11.4132 60.7241 11.4872 59.5407 11.5008L57.3893 11.5253V9.47478V7.42435L59.0276 7.42582C59.9287 7.42648 61.028 7.47387 61.4706 7.5309ZM40.2614 8.27137C40.3055 8.34769 40.4053 8.36796 40.4833 8.31615C40.6827 8.1841 40.6603 8.13246 40.4033 8.13246C40.2813 8.13246 40.2174 8.19506 40.2614 8.27137ZM123.284 12.1861C123.304 12.2929 123.436 12.3986 123.579 12.421C123.721 12.4434 123.798 12.3936 123.75 12.3101C123.702 12.2265 123.605 12.1968 123.533 12.2437C123.463 12.2906 123.37 12.2531 123.327 12.1606C123.284 12.0679 123.265 12.0793 123.284 12.1861ZM120.864 14.1247C120.915 14.2146 120.989 14.2881 121.026 14.2881C121.062 14.2881 121.093 14.2146 121.093 14.1247C121.093 14.0348 121.02 13.9613 120.931 13.9613C120.843 13.9613 120.812 14.0348 120.864 14.1247ZM38.2534 16.0483C38.3056 16.1041 38.4552 16.1665 38.5863 16.1872C38.7172 16.2079 38.7818 16.1791 38.7298 16.1232C38.6777 16.0674 38.5281 16.0051 38.397 15.9843C38.2661 15.9637 38.2015 15.9924 38.2534 16.0483ZM122.769 17.5662C122.769 17.6613 122.837 17.6938 122.921 17.6383C123.005 17.5827 123.074 17.5049 123.074 17.4653C123.074 17.4255 123.005 17.3931 122.921 17.3931C122.837 17.3931 122.769 17.4711 122.769 17.5662ZM99.2296 19.8333C99.1813 19.9169 99.2006 20.0239 99.272 20.0712C99.3425 20.1184 99.4014 20.05 99.4014 19.919C99.4014 19.6435 99.3531 19.6195 99.2296 19.8333Z" fill="#6B7280"/>
</svg>
